 <svg version="1.0" xmlns="http://www.w3.org/2000/svg" width="700.000000pt" height="679.000000pt" viewBox="0 0 700.000000 679.000000" preserveAspectRatio="xMidYMid meet">
<g transform="translate(0.000000,679.000000) scale(0.100000,-0.100000)" fill="#000000" stroke="none">
<path d="M2637 6416 c-76 -28 -104 -69 -136 -193 -30 -115 -28 -302 5 -483 2
-14 7 -43 10 -65 15 -99 98 -396 145 -522 71 -189 179 -406 195 -390 2 2 -25
89 -61 193 -36 104 -70 205 -75 224 -5 19 -16 60 -25 90 -44 153 -70 263 -111
485 -10 58 -17 150 -18 260 -1 159 0 173 23 220 41 87 105 126 183 110 35 -7
92 -43 171 -108 26 -22 51 -37 54 -34 16 17 -127 171 -191 204 -41 21 -124 26
-169 9z"></path>
<path d="M2276 6313 c-33 -9 -93 -50 -114 -80 -44 -62 -55 -120 -56 -278 0
-161 11 -231 65 -435 50 -189 189 -611 229 -695 43 -90 33 -103 -54 -74 -36
12 -69 19 -72 16 -3 -3 17 -140 46 -304 28 -164 52 -304 53 -312 1 -10 -13
-18 -43 -24 -25 -5 -53 -16 -62 -24 -41 -36 -53 -154 -23 -213 9 -18 40 -54
67 -80 l51 -48 -12 -153 c-6 -85 -14 -227 -17 -315 -8 -186 -17 -168 103 -205
38 -12 71 -25 74 -30 6 -10 -65 -350 -80 -385 -6 -15 -28 -26 -73 -38 -192
-53 -420 -158 -573 -266 -89 -63 -90 -63 -130 -51 -223 65 -377 87 -540 76
-118 -8 -229 -29 -261 -50 -13 -8 -50 -51 -84 -94 -164 -217 -270 -560 -283
-919 -2 -56 -7 -105 -10 -108 -3 -3 -25 7 -49 23 -94 63 -138 85 -144 70 -7
-19 62 -409 82 -460 2 -7 29 -28 59 -46 l55 -33 1 -152 c1 -83 1 -155 0 -159
-1 -5 15 -7 35 -5 l37 3 1 135 c1 127 2 135 21 138 19 2 168 -70 442 -214
l122 -64 1904 0 1904 0 12 23 c10 18 10 34 2 63 -16 60 -26 214 -14 214 6 0
13 -10 16 -23 12 -50 59 -163 75 -179 17 -17 20 -17 77 12 33 16 64 30 69 30
5 0 93 41 195 91 102 50 222 108 266 129 44 21 178 86 298 144 283 137 336
160 344 152 3 -3 4 -7 2 -9 -2 -1 -30 -22 -63 -46 -32 -24 -147 -86 -255 -139
-108 -52 -286 -139 -396 -192 -110 -53 -240 -116 -290 -139 -49 -23 -97 -46
-106 -51 -31 -16 -115 -57 -139 -68 -19 -8 73 -10 355 -9 l380 2 130 53 c240
98 454 174 472 168 9 -4 11 -18 8 -43 -12 -104 -18 -140 -26 -160 -8 -22 -6
-23 35 -23 l44 0 7 117 c3 65 8 123 10 130 2 7 26 23 52 36 l48 25 52 163 c28
90 59 191 68 224 9 33 23 77 31 98 13 35 19 77 10 77 -2 0 -54 -22 -116 -50
-62 -27 -115 -50 -119 -50 -3 0 -6 105 -6 232 0 188 -4 249 -18 315 -49 223
-136 404 -264 550 -54 61 -55 62 -141 81 -189 44 -228 47 -537 46 -165 0 -328
-5 -363 -11 l-63 -10 -72 45 c-94 58 -304 169 -364 192 -230 88 -304 113 -442
146 -150 36 -160 40 -177 69 -9 16 -48 84 -87 150 -38 66 -94 163 -125 215
-75 128 -127 214 -173 282 -22 31 -39 62 -39 68 0 6 11 32 25 58 44 82 29 153
-39 185 -34 16 -37 20 -24 37 7 10 26 38 43 62 16 24 62 86 102 139 91 122
223 317 223 329 0 6 -32 10 -70 10 -80 0 -92 11 -66 57 27 50 83 176 114 258
53 139 49 267 -10 355 -34 50 -49 49 -31 -2 9 -24 18 -78 21 -120 7 -113 -21
-216 -119 -439 -16 -36 -29 -73 -29 -81 0 -9 -6 -21 -14 -27 -7 -6 -21 -37
-31 -69 -10 -31 -27 -70 -37 -87 -10 -16 -18 -36 -18 -44 0 -8 -11 -37 -24
-65 -14 -29 -28 -65 -32 -81 -4 -17 -13 -39 -20 -51 -8 -11 -23 -46 -34 -78
-11 -33 -24 -64 -29 -70 -5 -6 -15 -31 -22 -55 -7 -23 -18 -45 -25 -48 -6 -2
-40 11 -75 30 -84 45 -203 71 -286 63 -54 -6 -67 -4 -91 14 -16 11 -52 22 -87
26 -37 4 -75 17 -99 31 -59 38 -139 56 -271 62 l-120 6 2 65 c0 36 4 92 7 125
23 263 37 467 33 505 -3 25 -34 131 -70 235 -155 445 -232 789 -236 1052 -2
144 7 184 57 237 31 33 96 65 132 66 14 0 20 4 15 9 -13 11 -75 20 -99 14z
m124 -1628 c22 -14 40 -33 40 -43 0 -9 -7 -95 -15 -191 -13 -165 -27 -225 -39
-170 -6 29 -56 401 -56 417 0 19 27 14 70 -13z m1438 -328 c2 -11 -5 -29 -16
-40 -10 -12 -31 -42 -46 -67 -15 -25 -45 -72 -66 -105 -22 -33 -44 -70 -50
-82 -14 -33 -34 -29 -25 5 6 27 48 128 86 208 10 22 19 46 19 52 0 43 91 69
98 29z m-1458 -292 c15 -18 8 -162 -10 -209 l-11 -29 -26 24 c-30 28 -62 94
-63 127 0 67 76 128 110 87z m566 -217 c-3 -18 -7 -58 -10 -88 l-6 -55 26 78
c15 45 30 77 38 77 20 0 26 -24 15 -62 -10 -38 2 -122 25 -167 47 -91 185
-126 293 -74 42 20 49 13 29 -28 -9 -18 -16 -36 -16 -41 0 -11 -47 -124 -86
-205 -13 -28 -24 -55 -24 -58 0 -6 -11 -31 -78 -178 l-27 -58 -60 6 c-71 8
-428 89 -500 114 -27 10 -78 24 -113 31 -38 8 -66 19 -71 29 -4 9 -4 59 0 111
30 375 44 510 51 510 4 0 18 -15 30 -34 52 -79 152 -113 252 -85 46 13 130 94
140 136 13 49 34 73 67 73 28 0 30 -2 25 -32z m642 -54 c42 -29 23 -118 -36
-170 -28 -25 -98 -51 -108 -41 -6 6 45 147 72 200 16 31 39 34 72 11z m85
-404 c60 -96 133 -211 161 -255 122 -194 266 -440 286 -491 23 -56 23 -56 6
-130 -55 -234 -257 -442 -510 -526 -345 -114 -740 -52 -1012 158 -92 71 -184
169 -184 195 0 20 132 578 153 648 8 25 19 47 26 49 6 2 69 -10 139 -27 224
-54 402 -85 416 -70 7 7 98 203 111 239 7 20 22 53 34 75 11 22 21 47 21 55 0
9 6 25 14 36 8 11 24 48 35 84 28 86 45 110 79 110 15 1 41 7 57 15 17 7 36
13 44 12 7 -1 63 -81 124 -177z m1266 -949 c7 -5 9 -11 4 -14 -18 -11 -131
-36 -193 -42 -60 -6 -63 -5 -44 9 56 40 198 69 233 47z m-3117 -163 c21 -21
21 -23 5 -26 -18 -4 -57 23 -57 40 0 16 30 8 52 -14z m-770 -1061 c-13 -170
-7 -318 19 -462 32 -180 34 -205 16 -205 -16 0 -47 26 -47 39 0 4 -9 56 -19
115 -22 118 -48 171 -91 181 -14 4 -27 10 -30 14 -3 4 -36 27 -75 51 -83 51
-195 140 -195 153 0 15 46 -1 94 -33 25 -17 60 -36 78 -42 18 -6 40 -16 48
-23 20 -17 101 -55 116 -55 15 0 21 30 30 155 5 81 49 254 60 242 3 -3 1 -61
-4 -130z"></path>
<path d="M2852 3568 c3 -7 16 -20 31 -28 24 -13 28 -13 44 3 16 16 16 17 -11
17 -15 0 -37 5 -48 11 -16 9 -19 8 -16 -3z"></path>
<path d="M3054 5980 c-94 -47 -120 -131 -118 -385 1 -143 7 -212 28 -335 46
-275 91 -473 138 -597 19 -52 39 -65 32 -21 -2 13 -17 109 -33 213 -68 434
-85 606 -79 801 5 174 22 221 87 248 39 15 45 15 76 1 18 -9 54 -39 80 -66 26
-28 50 -48 52 -45 8 8 -62 128 -89 152 -54 50 -117 62 -174 34z"></path>
<path d="M3624 5418 c22 -92 26 -121 26 -184 0 -169 -53 -352 -171 -588 -21
-43 -39 -83 -39 -89 0 -35 109 117 166 233 50 103 70 164 89 276 20 113 10
216 -28 310 -23 59 -53 88 -43 42z"></path>
<path d="M2624 4339 c-40 -20 -85 -129 -53 -129 6 0 21 13 35 29 30 36 83 55
135 48 48 -6 50 5 4 33 -41 25 -92 34 -121 19z"></path>
</g>
</svg>